<?xml version="1.0" encoding="utf-8"?>
<!-- Generator: Adobe Illustrator 17.0.0, SVG Export Plug-In . SVG Version: 6.00 Build 0)  -->
<!DOCTYPE svg PUBLIC "-//W3C//DTD SVG 1.1//EN" "http://www.w3.org/Graphics/SVG/1.1/DTD/svg11.dtd">
<svg version="1.1" xmlns="http://www.w3.org/2000/svg" xmlns:xlink="http://www.w3.org/1999/xlink" x="0px" y="0px" width="450px"
	 height="75px" viewBox="0 0 450 75" enable-background="new 0 0 450 75" xml:space="preserve">
<g id="bgimage">
</g>
<g id="color_palette">
</g>
<g id="login">
	<g id="button">
	</g>
	<g id="txtbox">
	</g>
	<g id="forgot">
	</g>
</g>
<g id="logo">
	<g id="artboard2">
		<g>
			<path fill="#FFFFFF" d="M193.574,22.005c-3.587-4.076-8.557-6.115-14.91-6.115c-6.327,0-11.283,2.045-14.87,6.135
				c-3.587,4.09-5.38,9.338-5.38,15.744v0.834c0,6.459,1.793,11.72,5.38,15.783c3.587,4.064,8.57,6.095,14.95,6.095
				c6.3,0,11.244-2.031,14.83-6.095c3.587-4.063,5.38-9.324,5.38-15.783v-0.834C198.954,31.336,197.161,26.082,193.574,22.005z
				 M194.412,38.756c0,5.391-1.255,9.736-3.766,13.037c-2.511,3.3-6.468,4.951-11.871,4.951c-5.547,0-9.564-1.641-12.051-4.923
				c-2.487-3.281-3.73-7.637-3.73-13.064v-1.155c0-5.281,1.243-9.59,3.73-12.927c2.487-3.336,6.456-5.006,11.907-5.006
				s9.444,1.669,11.979,5.006c2.534,3.337,3.802,7.646,3.802,12.927V38.756z"/>
			<g>
				<path fill="#FFFFFF" d="M191.938,35.844c-1.036-1.472-2.031-2.521-2.985-3.148c-0.954-0.627-2.018-0.941-3.189-0.941
					c0.219,0.355,0.327,0.763,0.327,1.227c0,0.627-0.225,1.138-0.675,1.533c-0.45,0.395-1.028,0.593-1.737,0.593
					c-0.763,0-1.376-0.251-1.84-0.756c-0.463-0.504-0.695-1.165-0.695-1.983c0-1.963,1.363-2.944,4.089-2.944
					c0.763,0,1.472,0.096,2.126,0.286c0.654,0.191,1.294,0.498,1.922,0.92c0.627,0.423,1.261,0.988,1.901,1.697
					c0.64,0.709,1.329,1.568,2.065,2.576L191.938,35.844z M170.514,35.108c-0.763,0-1.404-0.259-1.922-0.777
					c-0.517-0.517-0.776-1.145-0.776-1.881c0-0.763,0.259-1.404,0.776-1.922c0.519-0.517,1.159-0.777,1.922-0.777
					c0.736,0,1.363,0.259,1.881,0.777c0.518,0.518,0.777,1.159,0.777,1.922c0,0.736-0.259,1.363-0.777,1.881
					C171.877,34.849,171.25,35.108,170.514,35.108z"/>
			</g>
			<g>
				<path fill="#FFFFFF" d="M192.378,39.327c-2.047,2.047-4.2,3.591-6.458,4.632c-2.259,1.041-4.588,2.934-6.988,2.934
					c-2.453,0-4.83-1.911-7.133-2.987c-2.303-1.076-4.486-2.673-6.551-4.791l0.741-0.821c0.9,0.812,1.831,1.509,2.792,2.091
					c0.962,0.582,1.985,1.059,3.071,1.429c1.085,0.371,2.245,0.639,3.481,0.807c1.235,0.167,2.585,0.251,4.05,0.251
					c1.199,0,2.294-0.066,3.282-0.199c0.988-0.132,1.949-0.362,2.885-0.688c0.935-0.327,1.893-0.772,2.872-1.337
					c0.979-0.565,2.051-1.28,3.216-2.144L192.378,39.327z"/>
			</g>
		</g>
		<g>
			<path fill="#FFFFFF" d="M45.969,25.216l-3.65,0.542L27.934,63.816c-1.133,2.819-2.644,5.18-4.536,7.084
				c-1.892,1.903-4.741,2.855-8.548,2.855c-0.892,0-1.729-0.072-2.512-0.217c-0.783-0.145-1.705-0.349-2.765-0.614l1.229-7.698
				c0.337,0.048,0.687,0.096,1.048,0.145c0.361,0.048,0.674,0.072,0.94,0.072c1.758,0,3.108-0.428,4.048-1.283
				c0.94-0.855,1.663-1.922,2.169-3.199l1.193-2.964L7.803,25.794l-3.65-0.578v-6.361h19.155v6.361l-4.373,0.723l5.349,15.613
				l0.542,2.819l0.217,0.036l6.18-18.469l-4.409-0.723v-6.361h19.155V25.216z"/>
			<path fill="#FFFFFF" d="M67.546,58.72c-5.638,0-10.144-1.807-13.517-5.421c-3.374-3.614-5.06-8.204-5.06-13.77v-1.446
				c0-5.806,1.596-10.59,4.789-14.348c3.193-3.759,7.475-5.626,12.849-5.602c5.277,0,9.373,1.59,12.288,4.771
				c2.915,3.181,4.373,7.481,4.373,12.903v5.747H59.92l-0.072,0.217c0.193,2.579,1.054,4.699,2.584,6.361
				c1.53,1.663,3.608,2.494,6.235,2.494c2.337,0,4.277-0.235,5.819-0.705c1.542-0.47,3.229-1.211,5.06-2.223l2.855,6.506
				c-1.614,1.278-3.705,2.349-6.271,3.217C73.564,58.286,70.702,58.72,67.546,58.72z M66.606,26.264
				c-1.952,0-3.494,0.747-4.626,2.241c-1.133,1.494-1.831,3.458-2.096,5.891l0.108,0.181h12.939v-0.94
				c0-2.241-0.524-4.03-1.572-5.367S68.726,26.264,66.606,26.264z"/>
			<path fill="#FFFFFF" d="M113.158,57.961c-0.289-0.651-0.542-1.319-0.759-2.006c-0.217-0.687-0.386-1.379-0.506-2.078
				c-1.253,1.446-2.777,2.615-4.572,3.506c-1.795,0.891-3.849,1.337-6.162,1.337c-3.831,0-6.873-1.042-9.126-3.126
				c-2.253-2.084-3.379-4.921-3.379-8.512c0-3.662,1.469-6.493,4.409-8.493c2.94-2,7.252-3,12.939-3h5.385v-3.831
				c0-1.879-0.542-3.337-1.626-4.373c-1.084-1.036-2.687-1.554-4.807-1.554c-1.205,0-2.277,0.139-3.217,0.416
				c-0.94,0.277-1.699,0.609-2.277,0.994l-0.687,4.193h-7.951l0.036-8.674c1.928-1.301,4.138-2.397,6.632-3.289
				c2.494-0.891,5.21-1.337,8.15-1.337c4.843,0,8.777,1.187,11.8,3.56c3.023,2.373,4.536,5.753,4.536,10.138v16.156
				c0,0.602,0.006,1.169,0.018,1.699c0.012,0.53,0.054,1.036,0.126,1.518l3.217,0.434v6.325H113.158z M104.014,50.913
				c1.59,0,3.036-0.343,4.337-1.03c1.301-0.687,2.313-1.548,3.036-2.584v-5.963h-5.385c-2.241,0-3.94,0.524-5.096,1.572
				s-1.735,2.308-1.735,3.777c0,1.325,0.428,2.362,1.283,3.108C101.308,50.539,102.496,50.913,104.014,50.913z"/>
			<path fill="#FFFFFF" d="M129.711,51.636l5.06-1.084V26.3l-5.602-1.084v-6.361h15.433l0.47,5.71
				c0.916-2.024,2.096-3.602,3.542-4.735c1.446-1.132,3.12-1.699,5.024-1.699c0.554,0,1.138,0.042,1.753,0.126
				c0.614,0.085,1.126,0.187,1.536,0.307l-1.12,9.614l-4.337-0.108c-1.542,0-2.819,0.302-3.831,0.904
				c-1.012,0.602-1.784,1.458-2.313,2.566v19.011l5.06,1.084v6.325h-20.673V51.636z"/>
			<path fill="#FFFFFF" d="M201.489,38.733c0-6.168,1.343-11.144,4.03-14.927c2.687-3.782,6.451-5.674,11.294-5.674
				c2.193,0,4.12,0.488,5.783,1.464c1.663,0.976,3.084,2.367,4.265,4.174l0.759-4.915h9.18v37.949c0,5.156-1.62,9.271-4.861,12.343
				c-3.241,3.072-7.692,4.608-13.355,4.608c-1.976,0-4.072-0.271-6.289-0.813c-2.217-0.542-4.265-1.283-6.144-2.223l1.952-7.409
				c1.687,0.723,3.373,1.295,5.06,1.717c1.687,0.421,3.47,0.632,5.349,0.632c2.578,0,4.506-0.783,5.783-2.349
				c1.277-1.567,1.916-3.747,1.916-6.542v-2.566c-1.157,1.47-2.518,2.59-4.084,3.361c-1.566,0.771-3.361,1.157-5.385,1.157
				c-4.795,0-8.536-1.765-11.222-5.295c-2.687-3.529-4.03-8.174-4.03-13.933V38.733z M212.043,39.492
				c0,3.421,0.578,6.114,1.735,8.078c1.157,1.964,3.036,2.946,5.638,2.946c1.614,0,2.982-0.295,4.102-0.885
				c1.12-0.59,2.018-1.451,2.693-2.584V30.059c-0.675-1.18-1.572-2.096-2.693-2.747c-1.12-0.651-2.464-0.976-4.03-0.976
				c-2.578,0-4.464,1.145-5.656,3.434c-1.193,2.29-1.789,5.277-1.789,8.963V39.492z"/>
			<path fill="#FFFFFF" d="M243.921,51.636l5.06-1.084V26.3l-5.602-1.084v-6.361h15.433l0.47,5.71
				c0.916-2.024,2.096-3.602,3.542-4.735c1.446-1.132,3.12-1.699,5.024-1.699c0.554,0,1.138,0.042,1.753,0.126
				c0.614,0.085,1.126,0.187,1.536,0.307l-1.12,9.614l-4.337-0.108c-1.542,0-2.819,0.302-3.831,0.904
				c-1.012,0.602-1.783,1.458-2.313,2.566v19.011l5.06,1.084v6.325h-20.673V51.636z"/>
			<path fill="#FFFFFF" d="M298.459,57.961c-0.289-0.651-0.542-1.319-0.759-2.006s-0.386-1.379-0.506-2.078
				c-1.253,1.446-2.777,2.615-4.572,3.506c-1.795,0.891-3.849,1.337-6.162,1.337c-3.831,0-6.873-1.042-9.126-3.126
				c-2.253-2.084-3.379-4.921-3.379-8.512c0-3.662,1.47-6.493,4.409-8.493c2.94-2,7.253-3,12.939-3h5.385v-3.831
				c0-1.879-0.542-3.337-1.626-4.373c-1.084-1.036-2.687-1.554-4.807-1.554c-1.205,0-2.277,0.139-3.217,0.416
				c-0.94,0.277-1.699,0.609-2.277,0.994l-0.687,4.193h-7.951l0.036-8.674c1.928-1.301,4.138-2.397,6.632-3.289
				c2.494-0.891,5.211-1.337,8.15-1.337c4.843,0,8.777,1.187,11.8,3.56c3.024,2.373,4.536,5.753,4.536,10.138v16.156
				c0,0.602,0.006,1.169,0.018,1.699c0.012,0.53,0.054,1.036,0.126,1.518l3.217,0.434v6.325H298.459z M289.315,50.913
				c1.59,0,3.036-0.343,4.337-1.03s2.313-1.548,3.036-2.584v-5.963h-5.385c-2.241,0-3.94,0.524-5.096,1.572
				s-1.735,2.308-1.735,3.777c0,1.325,0.428,2.362,1.283,3.108C286.611,50.539,287.797,50.913,289.315,50.913z"/>
			<path fill="#FFFFFF" d="M313.422,25.216v-6.361h15.324l0.506,4.554c1.157-1.686,2.542-2.987,4.156-3.903
				c1.614-0.916,3.494-1.373,5.638-1.373c4.843,0,8.602,1.892,11.276,5.674c2.675,3.783,4.012,8.759,4.012,14.927v0.759
				c0,5.783-1.337,10.433-4.012,13.951c-2.675,3.518-6.409,5.277-11.204,5.277c-2.048,0-3.867-0.379-5.457-1.138
				s-2.952-1.873-4.084-3.343V65.55l5.096,1.084v6.361h-20.71v-6.361l5.096-1.084V26.3L313.422,25.216z M343.782,38.733
				c0-3.687-0.614-6.674-1.843-8.963c-1.229-2.289-3.108-3.434-5.638-3.434c-1.59,0-2.946,0.325-4.066,0.976
				c-1.12,0.651-2.006,1.578-2.656,2.783v17.131c0.651,1.108,1.536,1.952,2.656,2.53s2.5,0.867,4.138,0.867
				c2.554,0,4.427-0.999,5.62-3c1.193-2,1.789-4.711,1.789-8.132V38.733z"/>
			<path fill="#FFFFFF" d="M357.733,51.636l5.096-1.084V9.024L357.19,7.94V1.579h16.156v22.264c1.229-1.807,2.735-3.211,4.518-4.211
				c1.783-0.999,3.759-1.5,5.927-1.5c4.096,0,7.307,1.355,9.632,4.066c2.325,2.711,3.488,6.898,3.488,12.559v15.794l5.06,1.084
				v6.325h-20.167v-6.325l4.554-1.084V34.685c0-3.036-0.536-5.186-1.608-6.451c-1.072-1.265-2.669-1.897-4.789-1.897
				c-1.47,0-2.753,0.266-3.849,0.795c-1.096,0.53-2.018,1.278-2.765,2.241v21.179l4.554,1.084v6.325h-20.167V51.636z"/>
			<path fill="#FFFFFF" d="M445.848,25.216l-3.65,0.542l-14.385,38.058c-1.132,2.819-2.644,5.18-4.536,7.084
				c-1.891,1.903-4.741,2.855-8.548,2.855c-0.892,0-1.729-0.072-2.512-0.217s-1.705-0.349-2.765-0.614l1.229-7.698
				c0.337,0.048,0.687,0.096,1.048,0.145c0.361,0.048,0.675,0.072,0.94,0.072c1.759,0,3.108-0.428,4.048-1.283
				c0.94-0.855,1.663-1.922,2.169-3.199l1.193-2.964l-12.397-32.203l-3.65-0.578v-6.361h19.155v6.361l-4.373,0.723l5.349,15.613
				l0.542,2.819l0.217,0.036l6.18-18.469l-4.409-0.723v-6.361h19.155V25.216z"/>
		</g>
	</g>
</g>
<g id="Layer_8">
</g>
</svg>
